<mxfile host="app.diagrams.net" agent="Mozilla/5.0 (Windows NT 10.0; Win64; x64) AppleWebKit/537.36 (KHTML, like Gecko) Chrome/128.0.0.0 Safari/537.36 OPR/114.0.0.0" version="24.8.3">
  <diagram name="Page-1" id="-UovE2Zhv1z8pbF2lUYN">
    <mxGraphModel dx="1434" dy="1562" grid="1" gridSize="10" guides="1" tooltips="1" connect="1" arrows="1" fold="1" page="1" pageScale="1" pageWidth="827" pageHeight="1169" math="0" shadow="0">
      <root>
        <mxCell id="0" />
        <mxCell id="1" parent="0" />
        <mxCell id="yAXKZVAQc00k6sL3RdqJ-16" style="edgeStyle=orthogonalEdgeStyle;rounded=0;orthogonalLoop=1;jettySize=auto;html=1;entryX=0;entryY=0.5;entryDx=0;entryDy=0;" edge="1" parent="1" source="yAXKZVAQc00k6sL3RdqJ-1" target="yAXKZVAQc00k6sL3RdqJ-2">
          <mxGeometry relative="1" as="geometry">
            <Array as="points">
              <mxPoint x="190" y="90" />
              <mxPoint x="190" y="70" />
            </Array>
          </mxGeometry>
        </mxCell>
        <mxCell id="yAXKZVAQc00k6sL3RdqJ-17" style="edgeStyle=orthogonalEdgeStyle;rounded=0;orthogonalLoop=1;jettySize=auto;html=1;entryX=0;entryY=0.5;entryDx=0;entryDy=0;" edge="1" parent="1" source="yAXKZVAQc00k6sL3RdqJ-1" target="yAXKZVAQc00k6sL3RdqJ-3">
          <mxGeometry relative="1" as="geometry" />
        </mxCell>
        <mxCell id="yAXKZVAQc00k6sL3RdqJ-19" style="edgeStyle=orthogonalEdgeStyle;rounded=0;orthogonalLoop=1;jettySize=auto;html=1;entryX=0;entryY=0.5;entryDx=0;entryDy=0;" edge="1" parent="1" source="yAXKZVAQc00k6sL3RdqJ-1" target="yAXKZVAQc00k6sL3RdqJ-4">
          <mxGeometry relative="1" as="geometry">
            <Array as="points">
              <mxPoint x="190" y="90" />
              <mxPoint x="190" y="-30" />
              <mxPoint x="280" y="-30" />
              <mxPoint x="280" y="-80" />
            </Array>
          </mxGeometry>
        </mxCell>
        <mxCell id="yAXKZVAQc00k6sL3RdqJ-22" style="edgeStyle=orthogonalEdgeStyle;rounded=0;orthogonalLoop=1;jettySize=auto;html=1;entryX=0.5;entryY=1;entryDx=0;entryDy=0;" edge="1" parent="1" source="yAXKZVAQc00k6sL3RdqJ-1" target="yAXKZVAQc00k6sL3RdqJ-6">
          <mxGeometry relative="1" as="geometry">
            <Array as="points">
              <mxPoint x="100" y="190" />
              <mxPoint x="640" y="190" />
            </Array>
          </mxGeometry>
        </mxCell>
        <mxCell id="yAXKZVAQc00k6sL3RdqJ-1" value="Idle&lt;div&gt;Entry / on_enter_idle&lt;/div&gt;" style="rounded=1;whiteSpace=wrap;html=1;" vertex="1" parent="1">
          <mxGeometry x="40" y="60" width="120" height="60" as="geometry" />
        </mxCell>
        <mxCell id="yAXKZVAQc00k6sL3RdqJ-20" style="edgeStyle=orthogonalEdgeStyle;rounded=0;orthogonalLoop=1;jettySize=auto;html=1;entryX=0;entryY=0.5;entryDx=0;entryDy=0;" edge="1" parent="1" source="yAXKZVAQc00k6sL3RdqJ-2" target="yAXKZVAQc00k6sL3RdqJ-5">
          <mxGeometry relative="1" as="geometry" />
        </mxCell>
        <mxCell id="yAXKZVAQc00k6sL3RdqJ-2" value="Pre_Departure_Checks" style="rounded=1;whiteSpace=wrap;html=1;" vertex="1" parent="1">
          <mxGeometry x="230" y="40" width="130" height="60" as="geometry" />
        </mxCell>
        <mxCell id="yAXKZVAQc00k6sL3RdqJ-3" value="Standby" style="rounded=1;whiteSpace=wrap;html=1;" vertex="1" parent="1">
          <mxGeometry x="250" y="120" width="70" height="60" as="geometry" />
        </mxCell>
        <mxCell id="yAXKZVAQc00k6sL3RdqJ-4" value="AWS&lt;div&gt;entry / on_enter_AWS&lt;/div&gt;" style="rounded=1;whiteSpace=wrap;html=1;" vertex="1" parent="1">
          <mxGeometry x="380" y="-110" width="120" height="60" as="geometry" />
        </mxCell>
        <mxCell id="yAXKZVAQc00k6sL3RdqJ-21" style="edgeStyle=orthogonalEdgeStyle;rounded=0;orthogonalLoop=1;jettySize=auto;html=1;entryX=0;entryY=0.5;entryDx=0;entryDy=0;" edge="1" parent="1" source="yAXKZVAQc00k6sL3RdqJ-5" target="yAXKZVAQc00k6sL3RdqJ-6">
          <mxGeometry relative="1" as="geometry" />
        </mxCell>
        <mxCell id="yAXKZVAQc00k6sL3RdqJ-5" value="Departure" style="rounded=1;whiteSpace=wrap;html=1;" vertex="1" parent="1">
          <mxGeometry x="413" y="50" width="80" height="40" as="geometry" />
        </mxCell>
        <mxCell id="yAXKZVAQc00k6sL3RdqJ-23" style="edgeStyle=orthogonalEdgeStyle;rounded=0;orthogonalLoop=1;jettySize=auto;html=1;entryX=1;entryY=0.5;entryDx=0;entryDy=0;" edge="1" parent="1" source="yAXKZVAQc00k6sL3RdqJ-6" target="yAXKZVAQc00k6sL3RdqJ-4">
          <mxGeometry relative="1" as="geometry">
            <Array as="points">
              <mxPoint x="640" y="-80" />
            </Array>
          </mxGeometry>
        </mxCell>
        <mxCell id="yAXKZVAQc00k6sL3RdqJ-24" style="edgeStyle=orthogonalEdgeStyle;rounded=0;orthogonalLoop=1;jettySize=auto;html=1;entryX=0.5;entryY=0;entryDx=0;entryDy=0;" edge="1" parent="1" source="yAXKZVAQc00k6sL3RdqJ-6" target="yAXKZVAQc00k6sL3RdqJ-7">
          <mxGeometry relative="1" as="geometry" />
        </mxCell>
        <mxCell id="yAXKZVAQc00k6sL3RdqJ-6" value="Engine_Check&lt;div&gt;entry / on_enter_engine_check&lt;/div&gt;" style="rounded=1;whiteSpace=wrap;html=1;" vertex="1" parent="1">
          <mxGeometry x="570" y="30" width="140" height="60" as="geometry" />
        </mxCell>
        <mxCell id="yAXKZVAQc00k6sL3RdqJ-7" value="Speed_Change&lt;div&gt;entry / on_enter_speed_change&lt;/div&gt;" style="rounded=1;whiteSpace=wrap;html=1;" vertex="1" parent="1">
          <mxGeometry x="570" y="250" width="140" height="60" as="geometry" />
        </mxCell>
        <mxCell id="yAXKZVAQc00k6sL3RdqJ-8" value="Cruise&lt;div&gt;entry / on_enter_cruise&lt;/div&gt;" style="rounded=1;whiteSpace=wrap;html=1;" vertex="1" parent="1">
          <mxGeometry x="-20" y="350" width="120" height="60" as="geometry" />
        </mxCell>
        <mxCell id="yAXKZVAQc00k6sL3RdqJ-9" value="Brake_Change&lt;div&gt;entry / on_enter_brake_change&lt;/div&gt;" style="rounded=1;whiteSpace=wrap;html=1;" vertex="1" parent="1">
          <mxGeometry x="420" y="330" width="140" height="60" as="geometry" />
        </mxCell>
        <mxCell id="yAXKZVAQc00k6sL3RdqJ-10" value="Emergency_Stop&lt;div&gt;entry / on_enter_emergency_stop&lt;/div&gt;" style="rounded=1;whiteSpace=wrap;html=1;" vertex="1" parent="1">
          <mxGeometry x="600" y="330" width="160" height="60" as="geometry" />
        </mxCell>
        <mxCell id="yAXKZVAQc00k6sL3RdqJ-11" value="Station_Arrival" style="rounded=1;whiteSpace=wrap;html=1;" vertex="1" parent="1">
          <mxGeometry x="430" y="440" width="120" height="60" as="geometry" />
        </mxCell>
        <mxCell id="yAXKZVAQc00k6sL3RdqJ-12" value="Passenger_Boarding" style="rounded=1;whiteSpace=wrap;html=1;" vertex="1" parent="1">
          <mxGeometry x="620" y="440" width="120" height="60" as="geometry" />
        </mxCell>
        <mxCell id="yAXKZVAQc00k6sL3RdqJ-13" value="Maintenance" style="rounded=1;whiteSpace=wrap;html=1;" vertex="1" parent="1">
          <mxGeometry x="430" y="554.5" width="120" height="60" as="geometry" />
        </mxCell>
        <mxCell id="yAXKZVAQc00k6sL3RdqJ-14" value="Passenger_Alighting" style="rounded=1;whiteSpace=wrap;html=1;" vertex="1" parent="1">
          <mxGeometry x="620" y="550" width="120" height="60" as="geometry" />
        </mxCell>
        <mxCell id="yAXKZVAQc00k6sL3RdqJ-15" value="Station_Departing" style="rounded=1;whiteSpace=wrap;html=1;" vertex="1" parent="1">
          <mxGeometry x="430" y="670" width="120" height="60" as="geometry" />
        </mxCell>
        <mxCell id="yAXKZVAQc00k6sL3RdqJ-18" value="Standby" style="rounded=1;whiteSpace=wrap;html=1;" vertex="1" parent="1">
          <mxGeometry x="260" y="130" width="50" height="40" as="geometry" />
        </mxCell>
      </root>
    </mxGraphModel>
  </diagram>
</mxfile>
